<svg width="1200" height="819" viewBox="0 0 1200 819" fill="none" xmlns="http://www.w3.org/2000/svg">
<path fill-rule="evenodd" clip-rule="evenodd" d="M50 58.7194L0 79.3724V141V141.332V717V788.014L50 797.482C100 806.951 200 825.888 300 816.419C344.444 812.211 388.889 802.392 433.333 792.573C488.889 780.299 544.444 768.025 600 766.71C662.5 765.23 725 777.621 787.5 790.011C825 797.445 862.5 804.88 900 809.318C1000 821.154 1100 811.685 1150 806.951L1200 802.217V717V141.332V141V17.4133L1150 34.6242C1100 51.835 1000 86.2568 900 100.025C800 113.794 700 106.91 600 79.3724C568.421 70.6764 536.842 59.9208 505.263 49.1652C436.842 25.8614 368.421 2.55764 300 0.202474C200 -3.2397 100 38.0664 50 58.7194Z" fill="url(#paint0_linear)"/>
<defs>
<linearGradient id="paint0_linear" x1="0" y1="414" x2="1200" y2="414" gradientUnits="userSpaceOnUse">
<stop stop-color="#F794A4"/>
<stop offset="1" stop-color="#FDD6BD"/>
</linearGradient>
</defs>
</svg>
