<svg width="30" height="30" viewBox="0 0 30 30" fill="none" xmlns="http://www.w3.org/2000/svg">
<path d="M26.9417 4.99999C26.8281 4.98828 26.7136 4.98828 26.6 4.99999H3.26668C3.11713 5.00229 2.96858 5.02472 2.82501 5.06666L14.8667 17.0583L26.9417 4.99999Z" fill="#101844"/>
<path d="M28.175 6.05835L16.0417 18.1417C15.7294 18.4521 15.307 18.6263 14.8667 18.6263C14.4264 18.6263 14.0039 18.4521 13.6917 18.1417L1.66667 6.15002C1.6297 6.28588 1.6101 6.42589 1.60834 6.56668V23.2333C1.60834 23.6754 1.78393 24.0993 2.09649 24.4119C2.40905 24.7244 2.83298 24.9 3.275 24.9H26.6083C27.0504 24.9 27.4743 24.7244 27.7868 24.4119C28.0994 24.0993 28.275 23.6754 28.275 23.2333V6.56668C28.2684 6.39306 28.2346 6.22155 28.175 6.05835ZM4.41667 23.2333H3.25834V22.0417L9.31667 16.0333L10.4917 17.2084L4.41667 23.2333ZM26.5917 23.2333H25.425L19.35 17.2084L20.525 16.0333L26.5833 22.0417L26.5917 23.2333Z" fill="#101844"/>
</svg>
