<svg width="36" height="26" viewBox="0 0 36 26" fill="none" xmlns="http://www.w3.org/2000/svg">
<path d="M34 10.5H2C0.62 10.5 0.5 11.6175 0.5 13C0.5 14.3825 0.62 15.5 2 15.5H34C35.38 15.5 35.5 14.3825 35.5 13C35.5 11.6175 35.38 10.5 34 10.5ZM34 20.5H2C0.62 20.5 0.5 21.6175 0.5 23C0.5 24.3825 0.62 25.5 2 25.5H34C35.38 25.5 35.5 24.3825 35.5 23C35.5 21.6175 35.38 20.5 34 20.5ZM2 5.5H34C35.38 5.5 35.5 4.3825 35.5 3C35.5 1.6175 35.38 0.5 34 0.5H2C0.62 0.5 0.5 1.6175 0.5 3C0.5 4.3825 0.62 5.5 2 5.5Z" fill="#101844"/>
</svg>
